<svg xmlns="http://www.w3.org/2000/svg" width="1000" height="1000"><path fill-rule="evenodd" clip-rule="evenodd" d="M8.627 3.836c1.209.538 2.64.22 3.536-.787A3.043 3.043 0 0 1 14.457 2c1.454 0 2.85 1.038 3.006 2.738a2.993 2.993 0 0 0 2.39 2.675c2.592.522 3.277 3.906 1.11 5.489a3.125 3.125 0 0 0-1.147 3.461c.807 2.532-1.776 4.873-4.188 3.8-1.208-.538-2.64-.22-3.536.787-1.788 2.008-5.056.966-5.3-1.688a2.993 2.993 0 0 0-2.39-2.675c-2.592-.522-3.277-3.907-1.11-5.489A3.128 3.128 0 0 0 4.44 7.636c-.808-2.531 1.775-4.873 4.187-3.8Zm4.764 10.518-2.852 2.687-.724-3.851-2.687-2.853 3.851-.723 2.854-2.686.723 3.85 2.686 2.853-3.851.723Zm3.766-4.596-.62.578-.151-.834-.577-.62.833-.152.62-.577.151.833.577.62-.833.152Z" fill="#fff"></path></svg>