<svg version="1.1" id="&#x56FE;&#x5C42;_1" xmlns="http://www.w3.org/2000/svg" xmlns:xlink="http://www.w3.org/1999/xlink" x="0px"
	 y="0px" width="2500px" height="2500px" viewBox="0 0 2500 2500" style="enable-background:new 0 0 2500 2500;"
	 xml:space="preserve">
<g>
	<g>
		<g>
			<path style="fill:#3838f2;" d="M387.973,351.703c29.211-3.72,58.42-10.704,87.631-10.726
				c564.683-0.617,1129.363-1.712,1694.022,0.342c205.892,0.753,336.407,130.102,329.513,312.692
				c-2.351,62.394-25.057,91.399-90.851,91.261c-588.028-1.208-1176.078,0.252-1764.105-3.673
				c-26.643-0.182-79.623-52.168-75.287-66.135c35.866-115.977-30.968-174.967-113.466-226.75
				c-32.382-20.333-69.26-33.546-104.107-50.001C363.531,383.035,375.74,367.357,387.973,351.703z"/>
			<path style="fill:#3838f2;" d="M383.762,1456.396c27.512-117.732,50.194-230.926,82.726-341.218
				c6.939-23.597,49.546-52.17,75.79-52.285c598.58-1.803,1197.174-0.046,1795.814,1.621c6.323,0,12.644,7.463,33.753,20.813
				c-95.482,102.763-176.839,214.586-57.144,371.07C1658.552,1456.396,1029.081,1456.396,383.762,1456.396z"/>
			<path style="fill:#3838f2;" d="M13,2145.498c66.342-55.773,119.765-98.7,170.794-144.32
				c31.524-28.186,79.962-57.258,85.234-91.421c20.209-131.38,107.933-125.514,205.913-125.104
				c540.926,2.258,1081.873,1.071,1622.777,1.071c42.332,0,84.643,0,127.434,0c-10.544,176.521-225.268,380.175-428.396,382.846
				c-575.806,7.6-1151.818,2.305-1727.752,1.394C58.917,2169.939,48.773,2161.518,13,2145.498z"/>
		</g>
		<g>
			<path style="fill:#3838f2;" d="M387.973,351.703c29.211-3.72,58.42-10.704,87.631-10.726
				c564.683-0.617,1129.363-1.712,1694.022,0.342c205.892,0.753,336.407,130.102,329.513,312.692
				c-2.351,62.394-25.057,91.399-90.851,91.261c-588.028-1.208-1176.078,0.252-1764.105-3.673
				c-26.643-0.182-79.623-52.168-75.287-66.135c35.866-115.977-30.968-174.967-113.466-226.75
				c-32.382-20.333-69.26-33.546-104.107-50.001C363.531,383.035,375.74,367.357,387.973,351.703z"/>
			<path style="fill:#3838f2;" d="M383.762,1456.396c27.512-117.732,50.194-230.926,82.726-341.218
				c6.939-23.597,49.546-52.17,75.79-52.285c598.58-1.803,1197.174-0.046,1795.814,1.621c6.323,0,12.644,7.463,33.753,20.813
				c-95.482,102.763-176.839,214.586-57.144,371.07C1658.552,1456.396,1029.081,1456.396,383.762,1456.396z"/>
			<path style="fill:#3838f2;" d="M13,2145.498c66.342-55.773,119.765-98.7,170.794-144.32
				c31.524-28.186,79.962-57.258,85.234-91.421c20.209-131.38,107.933-125.514,205.913-125.104
				c540.926,2.258,1081.873,1.071,1622.777,1.071c42.332,0,84.643,0,127.434,0c-10.544,176.521-225.268,380.175-428.396,382.846
				c-575.806,7.6-1151.818,2.305-1727.752,1.394C58.917,2169.939,48.773,2161.518,13,2145.498z"/>
		</g>
	</g>
</g>
</svg>
